<svg version="1.1" xmlns="http://www.w3.org/2000/svg" viewBox="0 0 794.6923217773438 409.3564729182482" width="794.6923217773438" height="409.3564729182482">
  <!-- svg-source:excalidraw -->
  
  <defs>
    <style class="style-fonts">
      @font-face {
        font-family: "Virgil";
        src: url("https://file%2B.vscode-resource.vscode-cdn.net/Users/pa/.vscode/extensions/pomdtr.excalidraw-editor-3.7.4/public//dist/excalidraw-assets/Virgil.woff2");
      }
      @font-face {
        font-family: "Cascadia";
        src: url("https://file%2B.vscode-resource.vscode-cdn.net/Users/pa/.vscode/extensions/pomdtr.excalidraw-editor-3.7.4/public//dist/excalidraw-assets/Cascadia.woff2");
      }
      @font-face {
        font-family: "Assistant";
        src: url("https://file%2B.vscode-resource.vscode-cdn.net/Users/pa/.vscode/extensions/pomdtr.excalidraw-editor-3.7.4/public//dist/excalidraw-assets/Assistant-Regular.woff2");
      }
    </style>
    
  </defs>
  <rect x="0" y="0" width="794.6923217773438" height="409.3564729182482" fill="#cfc9c9"></rect><g stroke-linecap="round"><g transform="translate(206.07031714433924 44.37319975103139) rotate(0 -15.390862176293979 19.54628506841189)"><path d="M1.15 -0.92 C-4.04 5.56, -25.36 31.85, -30.61 38.58 M0.3 1.22 C-5.08 7.88, -26.27 33.83, -31.46 39.85" stroke="#1e1e1e" stroke-width="2" fill="none"></path></g></g><mask></mask><g stroke-linecap="round"><g transform="translate(176.46447444320677 83.7047925599968) rotate(0 51.810224726981744 0.034342337951386526)"><path d="M0.17 -0.51 C17.33 -0.28, 86.86 0.33, 104.07 0.47 M-1.19 -1.82 C15.74 -1.88, 86.06 -2.04, 103.36 -1.44" stroke="#1e1e1e" stroke-width="2" fill="none"></path></g></g><mask></mask><g stroke-linecap="round"><g transform="translate(312.3071707303636 44.00260810913403) rotate(0 -15.390862176293979 19.54628506841189)"><path d="M0.45 0.4 C-4.74 7.05, -25.74 33.07, -30.95 39.35 M-0.77 -0.43 C-6.15 5.88, -26.85 30.81, -31.99 37.36" stroke="#1e1e1e" stroke-width="2" fill="none"></path></g></g><mask></mask><g stroke-linecap="round"><g transform="translate(206.03734849990587 42.98851668483144) rotate(0 53.001217007135836 0.559093261848588)"><path d="M-0.17 0.26 C17.41 0.21, 88.34 0.06, 105.96 0.13 M-1.72 -0.65 C15.66 -0.62, 87.28 0.75, 104.98 1.15" stroke="#1e1e1e" stroke-width="2" fill="none"></path></g></g><mask></mask><g stroke-linecap="round"><g transform="translate(271.39219131491495 52.63733995565326) rotate(0 9.321884213524697 0.01236324166249858)"><path d="M-0.02 -0.45 C3.06 -0.5, 15.26 -0.31, 18.42 -0.18 M-0.7 0.5 C2.3 0.52, 14.63 0.59, 17.87 0.41" stroke="#1e1e1e" stroke-width="2" fill="none"></path></g><g transform="translate(271.39219131491495 52.63733995565326) rotate(0 9.321884213524697 0.01236324166249858)"><path d="M9.18 3.78 C11.27 2.63, 13.96 2.09, 17.87 0.41 M9.18 3.78 C12.4 2.71, 15.27 1.4, 17.87 0.41" stroke="#1e1e1e" stroke-width="2" fill="none"></path></g><g transform="translate(271.39219131491495 52.63733995565326) rotate(0 9.321884213524697 0.01236324166249858)"><path d="M9.04 -2.59 C11.18 -1.93, 13.91 -0.65, 17.87 0.41 M9.04 -2.59 C12.3 -1.41, 15.22 -0.46, 17.87 0.41" stroke="#1e1e1e" stroke-width="2" fill="none"></path></g></g><mask></mask><g stroke-linecap="round"><g transform="translate(258.8472050924306 70.88140981805361) rotate(0 9.321884213524697 0.01236324166249858)"><path d="M-0.23 -0.21 C2.93 -0.08, 15.8 0.22, 18.92 0.32 M0.66 -0.79 C3.77 -0.78, 15.73 -0.54, 18.63 -0.49" stroke="#1e1e1e" stroke-width="2" fill="none"></path></g><g transform="translate(258.8472050924306 70.88140981805361) rotate(0 9.321884213524697 0.01236324166249858)"><path d="M9.81 2.53 C12.25 1.89, 15.29 0.6, 18.63 -0.49 M9.81 2.53 C12.97 1.43, 16.2 0.32, 18.63 -0.49" stroke="#1e1e1e" stroke-width="2" fill="none"></path></g><g transform="translate(258.8472050924306 70.88140981805361) rotate(0 9.321884213524697 0.01236324166249858)"><path d="M9.93 -3.84 C12.31 -2.6, 15.32 -2, 18.63 -0.49 M9.93 -3.84 C13.07 -2.6, 16.25 -1.37, 18.63 -0.49" stroke="#1e1e1e" stroke-width="2" fill="none"></path></g></g><mask></mask><g stroke-linecap="round"><g transform="translate(229.324201017983 53.241765103597686) rotate(0 -8.897412916445546 -0.1662169156847142)"><path d="M0.27 0.3 C-2.69 0.34, -15.03 0.08, -17.98 0.04 M-0.25 -0.02 C-3.28 -0.12, -15.61 -0.6, -18.51 -0.74" stroke="#1e1e1e" stroke-width="2" fill="none"></path></g><g transform="translate(229.324201017983 53.241765103597686) rotate(0 -8.897412916445546 -0.1662169156847142)"><path d="M-10.03 -3.42 C-11.99 -2.86, -14.12 -1.75, -18.51 -0.74 M-10.03 -3.42 C-13.2 -2.4, -16.29 -1.48, -18.51 -0.74" stroke="#1e1e1e" stroke-width="2" fill="none"></path></g><g transform="translate(229.324201017983 53.241765103597686) rotate(0 -8.897412916445546 -0.1662169156847142)"><path d="M-10.29 2.66 C-12.17 1.65, -14.24 1.18, -18.51 -0.74 M-10.29 2.66 C-13.36 1.46, -16.35 0.15, -18.51 -0.74" stroke="#1e1e1e" stroke-width="2" fill="none"></path></g></g><mask></mask><g stroke-linecap="round"><g transform="translate(216.79520487909906 73.37386797816043) rotate(0 -8.897412916445546 -0.1662169156847142)"><path d="M-0.19 0.37 C-3.15 0.33, -14.51 0.13, -17.47 0.03 M0.72 0.09 C-2.31 -0.14, -14.55 -0.81, -17.73 -0.75" stroke="#1e1e1e" stroke-width="2" fill="none"></path></g><g transform="translate(216.79520487909906 73.37386797816043) rotate(0 -8.897412916445546 -0.1662169156847142)"><path d="M-9.3 -3.6 C-11.94 -2.35, -14.9 -1.75, -17.73 -0.75 M-9.3 -3.6 C-12.05 -2.72, -14.88 -1.99, -17.73 -0.75" stroke="#1e1e1e" stroke-width="2" fill="none"></path></g><g transform="translate(216.79520487909906 73.37386797816043) rotate(0 -8.897412916445546 -0.1662169156847142)"><path d="M-9.45 2.49 C-12.05 1.6, -14.96 0.08, -17.73 -0.75 M-9.45 2.49 C-12.14 1.43, -14.93 0.23, -17.73 -0.75" stroke="#1e1e1e" stroke-width="2" fill="none"></path></g></g><mask></mask><g stroke-linecap="round"><g transform="translate(217.3538357016472 72.82788728403318) rotate(0 26.822739633551947 -9.8809774753733)"><path d="M0.71 0.79 C9.66 -2.61, 44.54 -16.15, 53.3 -19.55 M-0.38 0.15 C8.42 -3.7, 43.39 -18.51, 52.17 -21.56" stroke="#1e1e1e" stroke-width="2" fill="none"></path></g></g><mask></mask><g stroke-linecap="round"><g transform="translate(230.08421503176191 53.75248989367901) rotate(0 14.191049337760745 8.598020029168296)"><path d="M-0.35 0.21 C4.2 2.98, 23.26 14.58, 28 17.38 M1.67 -0.72 C5.97 2.2, 22.61 15.85, 26.85 19.01" stroke="#1e1e1e" stroke-width="2" fill="none"></path></g></g><mask></mask><g stroke-linecap="round"><g transform="translate(281.3365755910954 84.76061159048277) rotate(0 0.05060976119153793 5.763005806537123)"><path d="M-0.18 0.08 C-0.16 1.97, -0.01 9.62, -0.05 11.45 M0.73 -0.35 C0.68 1.62, -0.53 10.15, -0.56 12.1" stroke="#1e1e1e" stroke-width="2" fill="none"></path></g></g><mask></mask><g stroke-linecap="round"><g transform="translate(312.2820709021736 46.26466557728713) rotate(0 0.05060976119153793 5.763005806537123)"><path d="M-0.15 -0.08 C-0.19 1.74, -0.38 9.15, -0.43 11.03 M0.78 -0.6 C0.91 1.27, 0.56 9.44, 0.53 11.47" stroke="#1e1e1e" stroke-width="2" fill="none"></path></g></g><mask></mask><g stroke-linecap="round"><g transform="translate(176.69577328305832 85.22261374934146) rotate(0 0.05060976119153793 5.763005806537123)"><path d="M-0.54 -0.5 C-0.58 1.38, -0.62 9.17, -0.44 11.17 M0.19 0.43 C0.31 2.38, 0.48 9.74, 0.51 11.68" stroke="#1e1e1e" stroke-width="2" fill="none"></path></g></g><mask></mask><g stroke-linecap="round"><g transform="translate(176.51749537738817 97.03478437819354) rotate(0 51.810224726981744 0.034342337951386526)"><path d="M-1.19 -0.78 C16.42 -0.59, 87.19 0.03, 104.49 0.02 M0.39 1.43 C18.02 1.91, 86.56 1.77, 104 1.53" stroke="#1e1e1e" stroke-width="2" fill="none"></path></g></g><mask></mask><g stroke-linecap="round"><g transform="translate(313.3106851265875 57.907591515848026) rotate(0 -15.390862176293979 19.54628506841189)"><path d="M0.87 -0.05 C-4.22 6.44, -26.62 31.52, -31.76 38.17 M-0.13 -1.12 C-4.75 5.56, -24.53 32.72, -29.56 39.23" stroke="#1e1e1e" stroke-width="2" fill="none"></path></g></g><mask></mask><g stroke-linecap="round"><g transform="translate(501.51172339433924 44.201324751031365) rotate(0 -15.390862176293979 19.54628506841189)"><path d="M-0.43 0.4 C-5.64 6.97, -26.18 33.82, -31.12 40.15 M1.54 -0.44 C-3.87 5.76, -26.91 31.95, -32.24 38.58" stroke="#1e1e1e" stroke-width="2" fill="none"></path></g></g><mask></mask><g stroke-linecap="round"><g transform="translate(471.90588069320677 83.5329175599968) rotate(0 51.810224726981744 0.034342337951386526)"><path d="M-0.33 1.06 C17.13 0.89, 86.89 -0.62, 104.33 -0.61 M1.69 0.57 C19.09 0.51, 86.72 0.78, 103.76 0.57" stroke="#1e1e1e" stroke-width="2" fill="none"></path></g></g><mask></mask><g stroke-linecap="round"><g transform="translate(607.7485769803637 43.83073310913406) rotate(0 -15.390862176293979 19.54628506841189)"><path d="M0.71 -0.68 C-4.25 5.84, -24.69 33.69, -30.1 40.15 M-0.38 1.58 C-5.41 8.3, -25.86 32.37, -30.69 38.59" stroke="#1e1e1e" stroke-width="2" fill="none"></path></g></g><mask></mask><g stroke-linecap="round"><g transform="translate(501.4787547499059 42.81664168483141) rotate(0 53.001217007135836 0.559093261848588)"><path d="M0.68 1.06 C18.07 1.2, 87.61 0.19, 105.06 0.12 M-0.42 0.57 C17.28 0.88, 89.82 0.94, 107.28 1.14" stroke="#1e1e1e" stroke-width="2" fill="none"></path></g></g><mask></mask><g stroke-linecap="round"><g transform="translate(566.8335975649151 52.46546495565329) rotate(0 9.321884213524697 0.01236324166249858)"><path d="M-0.43 -0.46 C2.58 -0.57, 15.1 -0.29, 18.37 -0.18 M0.35 0.5 C3.51 0.7, 16.34 0.63, 19.46 0.42" stroke="#1e1e1e" stroke-width="2" fill="none"></path></g><g transform="translate(566.8335975649151 52.46546495565329) rotate(0 9.321884213524697 0.01236324166249858)"><path d="M10.8 3.87 C13.49 2.44, 16.79 1.88, 19.46 0.42 M10.8 3.87 C13.72 2.6, 16.61 1.56, 19.46 0.42" stroke="#1e1e1e" stroke-width="2" fill="none"></path></g><g transform="translate(566.8335975649151 52.46546495565329) rotate(0 9.321884213524697 0.01236324166249858)"><path d="M10.61 -2.51 C13.39 -1.66, 16.76 0.05, 19.46 0.42 M10.61 -2.51 C13.59 -1.64, 16.54 -0.55, 19.46 0.42" stroke="#1e1e1e" stroke-width="2" fill="none"></path></g></g><mask></mask><g stroke-linecap="round"><g transform="translate(554.2886113424305 70.70953481805361) rotate(0 9.321884213524697 0.01236324166249858)"><path d="M-0.28 -0.2 C2.99 -0.09, 16.02 0.13, 19.16 0.22 M0.58 -0.78 C3.85 -0.8, 16.07 -0.67, 18.99 -0.65" stroke="#1e1e1e" stroke-width="2" fill="none"></path></g><g transform="translate(554.2886113424305 70.70953481805361) rotate(0 9.321884213524697 0.01236324166249858)"><path d="M10.2 2.46 C11.99 2.23, 14.27 0.99, 18.99 -0.65 M10.2 2.46 C13.27 1.42, 16.54 0.41, 18.99 -0.65" stroke="#1e1e1e" stroke-width="2" fill="none"></path></g><g transform="translate(554.2886113424305 70.70953481805361) rotate(0 9.321884213524697 0.01236324166249858)"><path d="M10.26 -3.92 C12.01 -2.74, 14.27 -2.56, 18.99 -0.65 M10.26 -3.92 C13.31 -2.74, 16.56 -1.53, 18.99 -0.65" stroke="#1e1e1e" stroke-width="2" fill="none"></path></g></g><mask></mask><g stroke-linecap="round"><g transform="translate(524.765607267983 53.069890103597714) rotate(0 -8.897412916445546 -0.1662169156847142)"><path d="M0.51 0.19 C-2.43 0.21, -14.88 0.05, -17.92 -0.07 M0.11 -0.19 C-2.89 -0.31, -15.39 -0.92, -18.42 -0.9" stroke="#1e1e1e" stroke-width="2" fill="none"></path></g><g transform="translate(524.765607267983 53.069890103597714) rotate(0 -8.897412916445546 -0.1662169156847142)"><path d="M-9.98 -3.73 C-11.94 -3.09, -13.99 -2.24, -18.42 -0.9 M-9.98 -3.73 C-11.97 -2.9, -14.5 -2.36, -18.42 -0.9" stroke="#1e1e1e" stroke-width="2" fill="none"></path></g><g transform="translate(524.765607267983 53.069890103597714) rotate(0 -8.897412916445546 -0.1662169156847142)"><path d="M-10.14 2.36 C-12.05 1.48, -14.05 0.81, -18.42 -0.9 M-10.14 2.36 C-12.08 1.6, -14.57 0.55, -18.42 -0.9" stroke="#1e1e1e" stroke-width="2" fill="none"></path></g></g><mask></mask><g stroke-linecap="round"><g transform="translate(512.2366111290991 73.20199297816043) rotate(0 -8.897412916445546 -0.1662169156847142)"><path d="M-0.13 0.26 C-3.17 0.14, -14.8 -0.46, -17.74 -0.55 M0.8 -0.08 C-2.35 -0.14, -15 -0.03, -18.15 0.04" stroke="#1e1e1e" stroke-width="2" fill="none"></path></g><g transform="translate(512.2366111290991 73.20199297816043) rotate(0 -8.897412916445546 -0.1662169156847142)"><path d="M-9.83 -3.12 C-12.88 -1.85, -16.54 -0.62, -18.15 0.04 M-9.83 -3.12 C-12.5 -2.24, -14.79 -1.13, -18.15 0.04" stroke="#1e1e1e" stroke-width="2" fill="none"></path></g><g transform="translate(512.2366111290991 73.20199297816043) rotate(0 -8.897412916445546 -0.1662169156847142)"><path d="M-9.74 2.96 C-12.84 1.85, -16.53 0.68, -18.15 0.04 M-9.74 2.96 C-12.47 1.96, -14.79 1.19, -18.15 0.04" stroke="#1e1e1e" stroke-width="2" fill="none"></path></g></g><mask></mask><g stroke-linecap="round"><g transform="translate(512.7952419516472 72.65601228403318) rotate(0 26.822739633551976 -9.8809774753733)"><path d="M0.12 -0.47 C9.12 -3.84, 44.6 -16.52, 53.72 -19.65 M-1.28 -1.77 C7.59 -4.97, 43.48 -14.79, 52.81 -18.05" stroke="#1e1e1e" stroke-width="2" fill="none"></path></g></g><mask></mask><g stroke-linecap="round"><g transform="translate(525.5256212817619 53.58061489367904) rotate(0 14.191049337760717 8.598020029168296)"><path d="M0.07 0.11 C4.98 3.14, 24.94 14.95, 29.55 17.69 M-1.35 -0.87 C3.49 1.84, 24.55 12.76, 29.22 15.83" stroke="#1e1e1e" stroke-width="2" fill="none"></path></g></g><mask></mask><g stroke-linecap="round"><g transform="translate(576.7779818410953 84.58873659048277) rotate(0 0.05060976119153793 5.763005806537123)"><path d="M0.54 0.23 C0.5 2.09, -0.18 9.36, -0.18 11.25 M0.15 -0.13 C0.29 1.8, 0.87 9.75, 0.91 11.8" stroke="#1e1e1e" stroke-width="2" fill="none"></path></g></g><mask></mask><g stroke-linecap="round"><g transform="translate(607.7234771521736 46.092790577287104) rotate(0 0.05060976119153793 5.763005806537123)"><path d="M-0.28 -0.28 C-0.28 1.61, 0.4 9.69, 0.52 11.56 M0.58 0.77 C0.49 2.73, 0.36 10.53, 0.3 12.28" stroke="#1e1e1e" stroke-width="2" fill="none"></path></g></g><mask></mask><g stroke-linecap="round"><g transform="translate(472.1371795330583 85.05073874934146) rotate(0 0.05060976119153793 5.763005806537123)"><path d="M0.42 0.04 C0.54 1.91, 0.42 9, 0.42 10.98 M-0.03 -0.42 C0.07 1.53, 0.11 9.49, 0.16 11.4" stroke="#1e1e1e" stroke-width="2" fill="none"></path></g></g><mask></mask><g stroke-linecap="round"><g transform="translate(471.9589016273882 96.86290937819354) rotate(0 51.810224726981744 0.034342337951386526)"><path d="M0.7 -1.19 C17.94 -1.05, 87.1 0.82, 104.31 0.9 M-0.39 0.8 C16.67 0.6, 86.42 -0.68, 103.72 -0.79" stroke="#1e1e1e" stroke-width="2" fill="none"></path></g></g><mask></mask><g stroke-linecap="round"><g transform="translate(608.7520913765874 57.735716515848054) rotate(0 -15.390862176293979 19.54628506841189)"><path d="M0.69 0.83 C-4.5 7.4, -25.27 31.83, -30.43 38.26 M-0.41 0.21 C-5.79 7.02, -26.14 32.59, -31.19 39.36" stroke="#1e1e1e" stroke-width="2" fill="none"></path></g></g><mask></mask><g stroke-linecap="round"><g transform="translate(79.02734839433913 193.2794497510314) rotate(0 -15.390862176293979 19.54628506841189)"><path d="M0.16 0.45 C-4.89 7.21, -24.63 33.34, -29.94 39.74 M-1.22 -0.36 C-6.38 6.12, -25.76 31.22, -30.45 37.95" stroke="#1e1e1e" stroke-width="2" fill="none"></path></g></g><mask></mask><g stroke-linecap="round"><g transform="translate(49.42150569320677 232.6110425599968) rotate(0 51.810224726981744 0.034342337951386526)"><path d="M0.84 0.64 C17.92 0.54, 85.53 -0.18, 102.65 -0.19 M-0.18 -0.06 C17.25 -0.03, 87.7 1.45, 104.85 1.21" stroke="#1e1e1e" stroke-width="2" fill="none"></path></g></g><mask></mask><g stroke-linecap="round"><g transform="translate(185.26420198036374 192.9088581091341) rotate(0 -15.390862176293979 19.54628506841189)"><path d="M-0.97 -0.26 C-6.26 6.23, -26.04 32.99, -30.87 39.6 M0.72 -1.44 C-4.8 4.63, -26.69 30.69, -31.86 37.75" stroke="#1e1e1e" stroke-width="2" fill="none"></path></g></g><mask></mask><g stroke-linecap="round"><g transform="translate(78.99437974990576 191.89476668483144) rotate(0 53.001217007135864 0.5590932618486022)"><path d="M-0.09 0.51 C17.88 0.79, 89.13 1.18, 106.82 1.44 M-1.59 -0.27 C16.37 -0.34, 88.48 -0.59, 106.29 -0.51" stroke="#1e1e1e" stroke-width="2" fill="none"></path></g></g><mask></mask><g stroke-linecap="round"><g transform="translate(144.34922256491507 201.54358995565332) rotate(0 9.321884213524697 0.012363241662512792)"><path d="M0.37 0.15 C3.49 0.18, 15.64 0.45, 18.65 0.45 M-0.1 -0.25 C2.95 -0.39, 15.21 -0.47, 18.23 -0.3" stroke="#1e1e1e" stroke-width="2" fill="none"></path></g><g transform="translate(144.34922256491507 201.54358995565332) rotate(0 9.321884213524697 0.012363241662512792)"><path d="M9.41 2.72 C12.11 1.81, 14.92 0.77, 18.23 -0.3 M9.41 2.72 C12.13 1.96, 15.07 0.58, 18.23 -0.3" stroke="#1e1e1e" stroke-width="2" fill="none"></path></g><g transform="translate(144.34922256491507 201.54358995565332) rotate(0 9.321884213524697 0.012363241662512792)"><path d="M9.53 -3.66 C12.21 -2.7, 14.99 -1.87, 18.23 -0.3 M9.53 -3.66 C12.21 -2.38, 15.11 -1.72, 18.23 -0.3" stroke="#1e1e1e" stroke-width="2" fill="none"></path></g></g><mask></mask><g stroke-linecap="round"><g transform="translate(131.8042363424305 219.7876598180536) rotate(0 9.321884213524697 0.012363241662512792)"><path d="M0.01 0.42 C3.03 0.42, 15.37 0.22, 18.46 0.13 M-0.65 0.16 C2.25 -0.03, 14.8 -0.82, 17.94 -0.78" stroke="#1e1e1e" stroke-width="2" fill="none"></path></g><g transform="translate(131.8042363424305 219.7876598180536) rotate(0 9.321884213524697 0.012363241662512792)"><path d="M9.28 2.67 C12.82 1.25, 15.74 0.06, 17.94 -0.78 M9.28 2.67 C11.72 1.46, 13.89 0.59, 17.94 -0.78" stroke="#1e1e1e" stroke-width="2" fill="none"></path></g><g transform="translate(131.8042363424305 219.7876598180536) rotate(0 9.321884213524697 0.012363241662512792)"><path d="M9.09 -3.7 C12.71 -2.78, 15.69 -1.62, 17.94 -0.78 M9.09 -3.7 C11.56 -3.15, 13.79 -2.25, 17.94 -0.78" stroke="#1e1e1e" stroke-width="2" fill="none"></path></g></g><mask></mask><g stroke-linecap="round"><g transform="translate(102.281232267983 202.14801510359774) rotate(0 -8.897412916445546 -0.1662169156847142)"><path d="M-0.18 0.11 C-3.16 -0.04, -14.9 -0.46, -17.88 -0.46 M0.73 -0.31 C-2.33 -0.42, -15.15 0.24, -18.35 0.18" stroke="#1e1e1e" stroke-width="2" fill="none"></path></g><g transform="translate(102.281232267983 202.14801510359774) rotate(0 -8.897412916445546 -0.1662169156847142)"><path d="M-10.05 -3.03 C-12.46 -2.14, -15.15 -1.29, -18.35 0.18 M-10.05 -3.03 C-13.42 -1.96, -16.35 -0.46, -18.35 0.18" stroke="#1e1e1e" stroke-width="2" fill="none"></path></g><g transform="translate(102.281232267983 202.14801510359774) rotate(0 -8.897412916445546 -0.1662169156847142)"><path d="M-9.93 3.05 C-12.4 2.11, -15.13 1.12, -18.35 0.18 M-9.93 3.05 C-13.35 1.78, -16.33 0.94, -18.35 0.18" stroke="#1e1e1e" stroke-width="2" fill="none"></path></g></g><mask></mask><g stroke-linecap="round"><g transform="translate(89.75223612909906 222.28011797816043) rotate(0 -8.897412916445546 -0.1662169156847142)"><path d="M-0.08 -0.13 C-3.06 -0.12, -15.08 0.25, -18.02 0.13 M-0.79 -0.67 C-3.84 -0.82, -15.69 -0.62, -18.57 -0.59" stroke="#1e1e1e" stroke-width="2" fill="none"></path></g><g transform="translate(89.75223612909906 222.28011797816043) rotate(0 -8.897412916445546 -0.1662169156847142)"><path d="M-10.24 -3.74 C-12.57 -3.08, -14.31 -2.01, -18.57 -0.59 M-10.24 -3.74 C-11.88 -2.97, -13.78 -2.45, -18.57 -0.59" stroke="#1e1e1e" stroke-width="2" fill="none"></path></g><g transform="translate(89.75223612909906 222.28011797816043) rotate(0 -8.897412916445546 -0.1662169156847142)"><path d="M-10.17 2.35 C-12.52 1.38, -14.28 0.82, -18.57 -0.59 M-10.17 2.35 C-11.8 1.87, -13.71 1.14, -18.57 -0.59" stroke="#1e1e1e" stroke-width="2" fill="none"></path></g></g><mask></mask><g stroke-linecap="round"><g transform="translate(90.3108669516472 221.73413728403318) rotate(0 26.822739633551947 -9.8809774753733)"><path d="M-0.49 1.02 C8.51 -2.42, 44.93 -17.33, 53.79 -20.9 M1.46 0.5 C10.32 -2.81, 43.99 -16.63, 52.92 -19.96" stroke="#1e1e1e" stroke-width="2" fill="none"></path></g></g><mask></mask><g stroke-linecap="round"><g transform="translate(103.04124628176203 202.65873989367907) rotate(0 14.191049337760745 8.59802002916831)"><path d="M0.15 -1.14 C4.79 1.44, 22.61 13.33, 27.39 16.52 M-1.24 0.87 C3.82 4.12, 24.67 15.17, 29.59 17.7" stroke="#1e1e1e" stroke-width="2" fill="none"></path></g></g><mask></mask><g stroke-linecap="round"><g transform="translate(154.2936068410953 233.66686159048277) rotate(0 0.05060976119153793 5.763005806537109)"><path d="M-0.45 -0.31 C-0.41 1.76, 0.25 9.9, 0.3 11.88 M0.32 0.72 C0.29 2.68, 0.14 9.19, -0.03 11.1" stroke="#1e1e1e" stroke-width="2" fill="none"></path></g></g><mask></mask><g stroke-linecap="round"><g transform="translate(185.2391021521736 195.17091557728713) rotate(0 0.05060976119153793 5.763005806537109)"><path d="M0.2 0.36 C0.24 2.34, -0.16 9.71, -0.18 11.57 M-0.36 0.07 C-0.1 2.17, 0.9 10.28, 0.91 12.3" stroke="#1e1e1e" stroke-width="2" fill="none"></path></g></g><mask></mask><g stroke-linecap="round"><g transform="translate(49.6528045330582 234.12886374934146) rotate(0 0.05060976119153793 5.763005806537109)"><path d="M-0.28 0.05 C-0.3 1.91, -0.09 9.56, 0.06 11.55 M0.58 -0.4 C0.46 1.53, -0.38 10.33, -0.39 12.26" stroke="#1e1e1e" stroke-width="2" fill="none"></path></g></g><mask></mask><g stroke-linecap="round"><g transform="translate(49.47452662738817 245.94103437819354) rotate(0 51.810224726981744 0.034342337951386526)"><path d="M-0.08 0.05 C17.48 0.22, 87.66 1.28, 104.75 1.1 M-1.59 -0.97 C15.97 -1.13, 86.67 -0.6, 104.39 -0.48" stroke="#1e1e1e" stroke-width="2" fill="none"></path></g></g><mask></mask><g stroke-linecap="round"><g transform="translate(186.26771637658737 206.81384151584808) rotate(0 -15.390862176293979 19.54628506841189)"><path d="M1.13 1.03 C-4.19 7.36, -26.69 31.54, -31.96 38.02 M0.26 0.53 C-4.7 6.96, -24.65 32.74, -29.87 39" stroke="#1e1e1e" stroke-width="2" fill="none"></path></g></g><mask></mask><g stroke-linecap="round"><g transform="translate(251.08203589433924 194.0997622510314) rotate(0 -15.390862176293979 19.54628506841189)"><path d="M-0.58 -0.72 C-5.68 5.81, -25.3 33.35, -30.16 40.18 M1.32 1.51 C-3.93 7.65, -25.57 32.45, -30.77 38.63" stroke="#1e1e1e" stroke-width="2" fill="none"></path></g></g><mask></mask><g stroke-linecap="round"><g transform="translate(221.47619319320677 233.4313550599968) rotate(0 51.810224726981744 0.034342337951386526)"><path d="M0.63 1.09 C18.17 1.42, 87.41 1.46, 104.68 1.25 M-0.5 0.61 C17.03 0.7, 86.9 -0.32, 104.3 -0.25" stroke="#1e1e1e" stroke-width="2" fill="none"></path></g></g><mask></mask><g stroke-linecap="round"><g transform="translate(357.3188894803636 193.72917060913403) rotate(0 -15.390862176293979 19.54628506841189)"><path d="M1.06 1.18 C-4.06 7.47, -24.67 32.5, -30.13 38.84 M0.16 0.76 C-5.12 7.75, -25.82 33.6, -30.73 40.24" stroke="#1e1e1e" stroke-width="2" fill="none"></path></g></g><mask></mask><g stroke-linecap="round"><g transform="translate(251.04906724990587 192.71507918483144) rotate(0 53.001217007135836 0.5590932618486022)"><path d="M0.65 -0.25 C17.99 -0.24, 87.35 0.91, 105.07 1.25 M-0.46 -1.43 C17.15 -0.7, 89.43 2.65, 107.3 2.86" stroke="#1e1e1e" stroke-width="2" fill="none"></path></g></g><mask></mask><g stroke-linecap="round"><g transform="translate(316.40391006491495 202.36390245565326) rotate(0 9.321884213524697 0.012363241662512792)"><path d="M-0.43 0.06 C2.71 0.14, 15.85 0.37, 19.09 0.34 M0.36 -0.38 C3.43 -0.45, 15.8 -0.6, 18.88 -0.47" stroke="#1e1e1e" stroke-width="2" fill="none"></path></g><g transform="translate(316.40391006491495 202.36390245565326) rotate(0 9.321884213524697 0.012363241662512792)"><path d="M10.09 2.62 C13.26 1.94, 16.59 0.77, 18.88 -0.47 M10.09 2.62 C12.29 1.86, 14.9 0.94, 18.88 -0.47" stroke="#1e1e1e" stroke-width="2" fill="none"></path></g><g transform="translate(316.40391006491495 202.36390245565326) rotate(0 9.321884213524697 0.012363241662512792)"><path d="M10.16 -3.75 C13.3 -2.18, 16.61 -1.08, 18.88 -0.47 M10.16 -3.75 C12.34 -2.78, 14.93 -1.95, 18.88 -0.47" stroke="#1e1e1e" stroke-width="2" fill="none"></path></g></g><mask></mask><g stroke-linecap="round"><g transform="translate(303.8589238424306 220.6079723180536) rotate(0 9.321884213524697 0.012363241662512792)"><path d="M0.44 0.31 C3.68 0.28, 15.97 -0.01, 19.01 -0.12 M0.01 0 C3.24 0.04, 15.72 0.49, 18.76 0.5" stroke="#1e1e1e" stroke-width="2" fill="none"></path></g><g transform="translate(303.8589238424306 220.6079723180536) rotate(0 9.321884213524697 0.012363241662512792)"><path d="M9.93 3.5 C12.16 3.1, 13.73 2.12, 18.76 0.5 M9.93 3.5 C11.97 2.78, 13.85 2.2, 18.76 0.5" stroke="#1e1e1e" stroke-width="2" fill="none"></path></g><g transform="translate(303.8589238424306 220.6079723180536) rotate(0 9.321884213524697 0.012363241662512792)"><path d="M10.07 -2.88 C12.27 -1.85, 13.81 -1.42, 18.76 0.5 M10.07 -2.88 C12.05 -2.14, 13.89 -1.27, 18.76 0.5" stroke="#1e1e1e" stroke-width="2" fill="none"></path></g></g><mask></mask><g stroke-linecap="round"><g transform="translate(274.335919767983 202.9683276035977) rotate(0 -8.897412916445546 -0.1662169156847142)"><path d="M0.36 -0.15 C-2.68 -0.32, -14.7 -0.71, -17.81 -0.73 M-0.12 -0.7 C-3.27 -0.84, -15.4 -0.42, -18.25 -0.23" stroke="#1e1e1e" stroke-width="2" fill="none"></path></g><g transform="translate(274.335919767983 202.9683276035977) rotate(0 -8.897412916445546 -0.1662169156847142)"><path d="M-10.04 -3.66 C-13.27 -2.34, -16.6 -1.41, -18.25 -0.23 M-10.04 -3.66 C-12.79 -2.49, -15.45 -1.63, -18.25 -0.23" stroke="#1e1e1e" stroke-width="2" fill="none"></path></g><g transform="translate(274.335919767983 202.9683276035977) rotate(0 -8.897412916445546 -0.1662169156847142)"><path d="M-9.75 2.42 C-13.12 1.43, -16.55 0.05, -18.25 -0.23 M-9.75 2.42 C-12.6 1.64, -15.35 0.56, -18.25 -0.23" stroke="#1e1e1e" stroke-width="2" fill="none"></path></g></g><mask></mask><g stroke-linecap="round"><g transform="translate(261.80692362909906 223.10043047816043) rotate(0 -8.897412916445546 -0.1662169156847142)"><path d="M-0.01 -0.39 C-3.12 -0.41, -15.31 -0.22, -18.27 -0.22 M-0.69 0.59 C-3.66 0.42, -14.38 -1.06, -17.28 -1.13" stroke="#1e1e1e" stroke-width="2" fill="none"></path></g><g transform="translate(261.80692362909906 223.10043047816043) rotate(0 -8.897412916445546 -0.1662169156847142)"><path d="M-8.69 -3.45 C-12.15 -2.98, -14.89 -1.74, -17.28 -1.13 M-8.69 -3.45 C-11.33 -2.92, -13.63 -2.02, -17.28 -1.13" stroke="#1e1e1e" stroke-width="2" fill="none"></path></g><g transform="translate(261.80692362909906 223.10043047816043) rotate(0 -8.897412916445546 -0.1662169156847142)"><path d="M-9.21 2.62 C-12.48 0.86, -15.02 -0.11, -17.28 -1.13 M-9.21 2.62 C-11.69 1.39, -13.83 0.54, -17.28 -1.13" stroke="#1e1e1e" stroke-width="2" fill="none"></path></g></g><mask></mask><g stroke-linecap="round"><g transform="translate(262.3655544516472 222.55444978403318) rotate(0 26.822739633551976 -9.8809774753733)"><path d="M-1.04 0.24 C7.91 -2.93, 44.69 -16.63, 53.69 -19.89 M0.62 -0.67 C9.42 -3.58, 44.22 -14.95, 52.76 -18.42" stroke="#1e1e1e" stroke-width="2" fill="none"></path></g></g><mask></mask><g stroke-linecap="round"><g transform="translate(275.0959337817619 203.479052393679) rotate(0 14.191049337760717 8.59802002916831)"><path d="M0.04 -0.13 C4.83 2.76, 23.12 14.86, 27.71 17.6 M-1.4 -1.24 C3.88 1.26, 24.83 12.62, 30.06 15.69" stroke="#1e1e1e" stroke-width="2" fill="none"></path></g></g><mask></mask><g stroke-linecap="round"><g transform="translate(326.3482943410954 234.48717409048277) rotate(0 0.05060976119153793 5.763005806537109)"><path d="M-0.31 0.18 C-0.36 2.05, -0.36 9.2, -0.28 11.13 M0.53 -0.2 C0.65 1.73, 0.87 9.8, 0.76 11.62" stroke="#1e1e1e" stroke-width="2" fill="none"></path></g></g><mask></mask><g stroke-linecap="round"><g transform="translate(357.2937896521736 195.99122807728713) rotate(0 0.05060976119153793 5.763005806537109)"><path d="M-0.38 -0.4 C-0.3 1.52, 0.17 9.7, 0.2 11.71 M0.43 0.58 C0.47 2.32, 0 8.89, -0.19 10.84" stroke="#1e1e1e" stroke-width="2" fill="none"></path></g></g><mask></mask><g stroke-linecap="round"><g transform="translate(221.70749203305832 234.94917624934146) rotate(0 0.05060976119153793 5.763005806537109)"><path d="M0.1 0.19 C0.12 2.19, -0.28 9.68, -0.2 11.65 M-0.52 -0.2 C-0.28 1.67, 0.72 8.85, 0.87 10.75" stroke="#1e1e1e" stroke-width="2" fill="none"></path></g></g><mask></mask><g stroke-linecap="round"><g transform="translate(221.52921412738817 246.76134687819354) rotate(0 51.810224726981744 0.034342337951386526)"><path d="M-0.67 0.27 C16.73 0.38, 87.09 1.02, 104.56 1.09 M1.19 -0.63 C18.48 -0.87, 87.03 -0.38, 104.1 -0.5" stroke="#1e1e1e" stroke-width="2" fill="none"></path></g></g><mask></mask><g stroke-linecap="round"><g transform="translate(358.3224038765875 207.63415401584803) rotate(0 -15.390862176293979 19.54628506841189)"><path d="M0.94 1.02 C-4 7.58, -25.1 33.34, -30.28 39.67 M-0.03 0.5 C-5.02 6.69, -25.87 31.22, -30.97 37.85" stroke="#1e1e1e" stroke-width="2" fill="none"></path></g></g><mask></mask><g stroke-linecap="round"><g transform="translate(456.0390671443391 189.5099185010314) rotate(0 -15.390862176293979 19.54628506841189)"><path d="M0.01 -0.58 C-5.08 6.05, -25.37 32.91, -30.69 39.65 M-1.45 1.73 C-6.68 8.01, -26.9 31.79, -31.59 37.82" stroke="#1e1e1e" stroke-width="2" fill="none"></path></g></g><mask></mask><g stroke-linecap="round"><g transform="translate(426.43322444320677 228.8415113099968) rotate(0 51.810224726981744 0.034342337951386526)"><path d="M0.09 0.56 C17.17 0.79, 85.2 1.01, 102.48 0.82 M-1.32 -0.19 C16.11 -0.25, 87.19 -1.01, 104.6 -0.91" stroke="#1e1e1e" stroke-width="2" fill="none"></path></g></g><mask></mask><g stroke-linecap="round"><g transform="translate(562.2759207303637 189.13932685913403) rotate(0 -15.390862176293979 19.54628506841189)"><path d="M-1.14 0.75 C-6.26 7.07, -25.66 32.18, -30.63 38.44 M0.46 0.1 C-4.81 6.51, -26.12 33.12, -31.5 39.64" stroke="#1e1e1e" stroke-width="2" fill="none"></path></g></g><mask></mask><g stroke-linecap="round"><g transform="translate(456.00609849990576 188.12523543483144) rotate(0 53.001217007135836 0.5590932618486022)"><path d="M0.15 -0.65 C17.98 -0.72, 88.13 0.05, 105.83 0.33 M-1.23 1.62 C16.53 1.62, 86.95 1.34, 104.8 1.45" stroke="#1e1e1e" stroke-width="2" fill="none"></path></g></g><mask></mask><g stroke-linecap="round"><g transform="translate(521.3609413149151 197.77405870565326) rotate(0 9.321884213524697 0.012363241662512792)"><path d="M-0.08 -0.36 C3.05 -0.31, 15.68 -0.03, 18.83 -0.01 M-0.78 0.64 C2.28 0.81, 15.27 0.74, 18.49 0.67" stroke="#1e1e1e" stroke-width="2" fill="none"></path></g><g transform="translate(521.3609413149151 197.77405870565326) rotate(0 9.321884213524697 0.012363241662512792)"><path d="M9.77 3.96 C12.2 3.09, 15.21 2.06, 18.49 0.67 M9.77 3.96 C11.8 3.35, 14.06 2.39, 18.49 0.67" stroke="#1e1e1e" stroke-width="2" fill="none"></path></g><g transform="translate(521.3609413149151 197.77405870565326) rotate(0 9.321884213524697 0.012363241662512792)"><path d="M9.7 -2.42 C12.13 -1.29, 15.16 -0.33, 18.49 0.67 M9.7 -2.42 C11.73 -1.43, 14.01 -0.79, 18.49 0.67" stroke="#1e1e1e" stroke-width="2" fill="none"></path></g></g><mask></mask><g stroke-linecap="round"><g transform="translate(508.8159550924305 216.0181285680536) rotate(0 9.321884213524697 0.012363241662512792)"><path d="M0.19 -0.03 C3.34 -0.01, 15.8 -0.19, 18.82 -0.24 M-0.38 -0.53 C2.72 -0.41, 15.45 0.22, 18.49 0.32" stroke="#1e1e1e" stroke-width="2" fill="none"></path></g><g transform="translate(508.8159550924305 216.0181285680536) rotate(0 9.321884213524697 0.012363241662512792)"><path d="M9.6 3.14 C12.12 2.47, 14.46 1.25, 18.49 0.32 M9.6 3.14 C11.55 2.51, 13.54 1.74, 18.49 0.32" stroke="#1e1e1e" stroke-width="2" fill="none"></path></g><g transform="translate(508.8159550924305 216.0181285680536) rotate(0 9.321884213524697 0.012363241662512792)"><path d="M9.87 -3.23 C12.29 -2.08, 14.56 -1.48, 18.49 0.32 M9.87 -3.23 C11.73 -2.41, 13.66 -1.71, 18.49 0.32" stroke="#1e1e1e" stroke-width="2" fill="none"></path></g></g><mask></mask><g stroke-linecap="round"><g transform="translate(479.292951017983 198.3784838535977) rotate(0 -8.897412916445546 -0.1662169156847142)"><path d="M0.18 -0.27 C-2.87 -0.38, -15.04 -0.79, -18.1 -0.72 M-0.39 0.78 C-3.28 0.73, -14.25 0.03, -17.03 -0.23" stroke="#1e1e1e" stroke-width="2" fill="none"></path></g><g transform="translate(479.292951017983 198.3784838535977) rotate(0 -8.897412916445546 -0.1662169156847142)"><path d="M-8.46 -2.64 C-11.54 -2.07, -14.5 -1.34, -17.03 -0.23 M-8.46 -2.64 C-11.84 -1.78, -15.12 -0.85, -17.03 -0.23" stroke="#1e1e1e" stroke-width="2" fill="none"></path></g><g transform="translate(479.292951017983 198.3784838535977) rotate(0 -8.897412916445546 -0.1662169156847142)"><path d="M-8.92 3.43 C-11.84 1.97, -14.65 0.68, -17.03 -0.23 M-8.92 3.43 C-12.11 1.98, -15.21 0.61, -17.03 -0.23" stroke="#1e1e1e" stroke-width="2" fill="none"></path></g></g><mask></mask><g stroke-linecap="round"><g transform="translate(466.76395487909906 218.51058672816043) rotate(0 -8.897412916445546 -0.1662169156847142)"><path d="M-0.31 -0.39 C-3.37 -0.33, -15.24 0.08, -18.19 0.11 M0.53 0.6 C-2.37 0.53, -14 -0.61, -17.17 -0.64" stroke="#1e1e1e" stroke-width="2" fill="none"></path></g><g transform="translate(466.76395487909906 218.51058672816043) rotate(0 -8.897412916445546 -0.1662169156847142)"><path d="M-8.64 -3.2 C-11.8 -2.69, -13.97 -1.7, -17.17 -0.64 M-8.64 -3.2 C-11.53 -2.44, -14.02 -1.44, -17.17 -0.64" stroke="#1e1e1e" stroke-width="2" fill="none"></path></g><g transform="translate(466.76395487909906 218.51058672816043) rotate(0 -8.897412916445546 -0.1662169156847142)"><path d="M-8.99 2.88 C-12.02 1.36, -14.07 0.33, -17.17 -0.64 M-8.99 2.88 C-11.75 1.68, -14.13 0.73, -17.17 -0.64" stroke="#1e1e1e" stroke-width="2" fill="none"></path></g></g><mask></mask><g stroke-linecap="round"><g transform="translate(467.3225857016472 217.96460603403318) rotate(0 26.822739633551976 -9.8809774753733)"><path d="M-0.87 0.96 C8.1 -2.15, 44.17 -15.99, 53.15 -19.51 M0.87 0.41 C9.7 -3.01, 43.44 -18.26, 51.94 -21.49" stroke="#1e1e1e" stroke-width="2" fill="none"></path></g></g><mask></mask><g stroke-linecap="round"><g transform="translate(480.052965031762 198.889208643679) rotate(0 14.191049337760717 8.59802002916831)"><path d="M-0.5 0.26 C4.26 2.9, 23.02 14.06, 27.7 16.84 M1.44 -0.65 C6.67 2.08, 25.29 15.07, 30.06 18.19" stroke="#1e1e1e" stroke-width="2" fill="none"></path></g></g><mask></mask><g stroke-linecap="round"><g transform="translate(531.3053255910953 229.89733034048277) rotate(0 0.05060976119153793 5.763005806537109)"><path d="M-0.31 -0.16 C-0.32 1.72, -0.37 9.39, -0.26 11.39 M0.53 -0.72 C0.72 1.23, 0.86 10.08, 0.79 12.02" stroke="#1e1e1e" stroke-width="2" fill="none"></path></g></g><mask></mask><g stroke-linecap="round"><g transform="translate(562.2508209021736 191.40138432728713) rotate(0 0.05060976119153793 5.763005806537109)"><path d="M-0.36 -0.13 C-0.25 1.87, 0.22 9.86, 0.36 11.83 M0.46 -0.68 C0.55 1.18, 0.08 9.13, 0.06 11.02" stroke="#1e1e1e" stroke-width="2" fill="none"></path></g></g><mask></mask><g stroke-linecap="round"><g transform="translate(426.6645232830582 230.35933249934146) rotate(0 0.05060976119153793 5.763005806537109)"><path d="M0.26 0.3 C0.4 2.27, 0.53 9.77, 0.5 11.68 M-0.27 -0.02 C-0.13 1.79, 0.28 8.98, 0.28 10.8" stroke="#1e1e1e" stroke-width="2" fill="none"></path></g></g><mask></mask><g stroke-linecap="round"><g transform="translate(426.4862453773882 242.17150312819354) rotate(0 51.810224726981744 0.034342337951386526)"><path d="M0.88 0.34 C18.05 0.34, 86.43 0.62, 103.59 0.68 M-0.12 -0.53 C16.84 -0.94, 85.42 -0.99, 102.62 -1.13" stroke="#1e1e1e" stroke-width="2" fill="none"></path></g></g><mask></mask><g stroke-linecap="round"><g transform="translate(563.2794351265874 203.04431026584803) rotate(0 -15.390862176293979 19.54628506841189)"><path d="M-0.03 0.61 C-5.28 7.16, -25.57 33.15, -30.61 39.68 M-1.51 -0.12 C-6.98 6.05, -26.59 31.55, -31.46 37.86" stroke="#1e1e1e" stroke-width="2" fill="none"></path></g></g><mask></mask><g stroke-linecap="round"><g transform="translate(634.9726608943391 189.1700747510314) rotate(0 -15.390862176293979 19.54628506841189)"><path d="M-0.46 -0.82 C-5.78 5.83, -26.02 33.47, -31.14 40.26 M1.51 1.36 C-4.08 7.68, -26.67 32.64, -32.28 38.76" stroke="#1e1e1e" stroke-width="2" fill="none"></path></g></g><mask></mask><g stroke-linecap="round"><g transform="translate(605.3668181932068 228.5016675599968) rotate(0 51.810224726981744 0.034342337951386526)"><path d="M-0.36 1.17 C16.92 1.46, 85.98 1.19, 103.23 0.91 M1.65 0.74 C18.78 0.77, 85.33 -0.74, 102.08 -0.77" stroke="#1e1e1e" stroke-width="2" fill="none"></path></g></g><mask></mask><g stroke-linecap="round"><g transform="translate(741.2095144803637 188.79948310913403) rotate(0 -15.390862176293979 19.54628506841189)"><path d="M-0.39 0.84 C-5.53 7.07, -26.22 32.11, -31.21 38.55 M1.61 0.24 C-3.69 7.14, -26.97 33.62, -32.39 39.81" stroke="#1e1e1e" stroke-width="2" fill="none"></path></g></g><mask></mask><g stroke-linecap="round"><g transform="translate(634.9396922499058 187.78539168483144) rotate(0 53.001217007135836 0.5590932618486022)"><path d="M-0.43 -0.54 C17.37 -0.42, 88.77 1.09, 106.43 1.53 M1.54 1.79 C19.26 1.46, 88.54 -0.13, 105.71 -0.37" stroke="#1e1e1e" stroke-width="2" fill="none"></path></g></g><mask></mask><g stroke-linecap="round"><g transform="translate(700.2945350649151 197.43421495565326) rotate(0 9.321884213524697 0.012363241662512792)"><path d="M0.2 0.19 C3.3 0.31, 15.4 0.53, 18.43 0.49 M-0.37 -0.19 C2.67 -0.19, 14.84 -0.36, 17.89 -0.24" stroke="#1e1e1e" stroke-width="2" fill="none"></path></g><g transform="translate(700.2945350649151 197.43421495565326) rotate(0 9.321884213524697 0.012363241662512792)"><path d="M9.1 2.87 C11.59 1.86, 14.15 1.01, 17.89 -0.24 M9.1 2.87 C11.45 2.05, 14.41 1.17, 17.89 -0.24" stroke="#1e1e1e" stroke-width="2" fill="none"></path></g><g transform="translate(700.2945350649151 197.43421495565326) rotate(0 9.321884213524697 0.012363241662512792)"><path d="M9.16 -3.51 C11.62 -2.84, 14.16 -2, 17.89 -0.24 M9.16 -3.51 C11.46 -2.47, 14.4 -1.5, 17.89 -0.24" stroke="#1e1e1e" stroke-width="2" fill="none"></path></g></g><mask></mask><g stroke-linecap="round"><g transform="translate(687.7495488424305 215.6782848180536) rotate(0 9.321884213524697 0.012363241662512792)"><path d="M-0.21 0.47 C2.82 0.43, 15.35 -0.01, 18.4 -0.03 M0.68 0.23 C3.61 0.27, 14.77 0.77, 17.85 0.65" stroke="#1e1e1e" stroke-width="2" fill="none"></path></g><g transform="translate(687.7495488424305 215.6782848180536) rotate(0 9.321884213524697 0.012363241662512792)"><path d="M9.07 3.78 C12.41 2.54, 14.92 1.26, 17.85 0.65 M9.07 3.78 C12.44 2.75, 15.29 1.39, 17.85 0.65" stroke="#1e1e1e" stroke-width="2" fill="none"></path></g><g transform="translate(687.7495488424305 215.6782848180536) rotate(0 9.321884213524697 0.012363241662512792)"><path d="M9.11 -2.59 C12.45 -1.69, 14.94 -0.84, 17.85 0.65 M9.11 -2.59 C12.44 -1.31, 15.27 -0.36, 17.85 0.65" stroke="#1e1e1e" stroke-width="2" fill="none"></path></g></g><mask></mask><g stroke-linecap="round"><g transform="translate(658.226544767983 198.0386401035977) rotate(0 -8.897412916445546 -0.1662169156847142)"><path d="M-0.24 -0.05 C-3.26 -0.13, -15.29 0.01, -18.31 0.01 M0.64 -0.55 C-2.2 -0.55, -14.35 -0.71, -17.34 -0.78" stroke="#1e1e1e" stroke-width="2" fill="none"></path></g><g transform="translate(658.226544767983 198.0386401035977) rotate(0 -8.897412916445546 -0.1662169156847142)"><path d="M-8.92 -3.67 C-11.15 -3.35, -13.04 -2.61, -17.34 -0.78 M-8.92 -3.67 C-12 -2.73, -14.82 -1.8, -17.34 -0.78" stroke="#1e1e1e" stroke-width="2" fill="none"></path></g><g transform="translate(658.226544767983 198.0386401035977) rotate(0 -8.897412916445546 -0.1662169156847142)"><path d="M-9.03 2.41 C-11.26 1.14, -13.11 0.29, -17.34 -0.78 M-9.03 2.41 C-12.09 1.23, -14.88 0.04, -17.34 -0.78" stroke="#1e1e1e" stroke-width="2" fill="none"></path></g></g><mask></mask><g stroke-linecap="round"><g transform="translate(645.6975486290991 218.17074297816043) rotate(0 -8.897412916445546 -0.1662169156847142)"><path d="M-0.51 0.34 C-3.53 0.34, -15.52 0, -18.33 -0.07 M0.22 0.04 C-2.61 -0.12, -14.41 -0.73, -17.37 -0.89" stroke="#1e1e1e" stroke-width="2" fill="none"></path></g><g transform="translate(645.6975486290991 218.17074297816043) rotate(0 -8.897412916445546 -0.1662169156847142)"><path d="M-8.86 -3.49 C-10.76 -3.29, -13.01 -1.86, -17.37 -0.89 M-8.86 -3.49 C-11.93 -2.75, -14.73 -1.63, -17.37 -0.89" stroke="#1e1e1e" stroke-width="2" fill="none"></path></g><g transform="translate(645.6975486290991 218.17074297816043) rotate(0 -8.897412916445546 -0.1662169156847142)"><path d="M-9.18 2.59 C-11 1.23, -13.16 1.11, -17.37 -0.89 M-9.18 2.59 C-12.12 1.17, -14.8 0.13, -17.37 -0.89" stroke="#1e1e1e" stroke-width="2" fill="none"></path></g></g><mask></mask><g stroke-linecap="round"><g transform="translate(646.2561794516472 217.62476228403318) rotate(0 26.822739633551976 -9.8809774753733)"><path d="M-1.16 0.58 C8.12 -2.73, 45.57 -15.63, 54.56 -19.1 M0.43 -0.16 C9.73 -3.88, 44.95 -17.7, 54.1 -20.87" stroke="#1e1e1e" stroke-width="2" fill="none"></path></g></g><mask></mask><g stroke-linecap="round"><g transform="translate(658.986558781762 198.549364893679) rotate(0 14.191049337760717 8.59802002916831)"><path d="M0.92 0.66 C5.71 3.35, 23.02 14.1, 27.56 16.7 M-0.06 -0.04 C5.21 2.76, 25.29 15.12, 29.85 17.98" stroke="#1e1e1e" stroke-width="2" fill="none"></path></g></g><mask></mask><g stroke-linecap="round"><g transform="translate(710.2389193410953 229.55748659048277) rotate(0 0.05060976119153793 5.763005806537109)"><path d="M-0.38 -0.23 C-0.45 1.57, -0.15 9.13, 0 11.11 M0.43 -0.82 C0.25 1.01, -0.48 9.41, -0.48 11.59" stroke="#1e1e1e" stroke-width="2" fill="none"></path></g></g><mask></mask><g stroke-linecap="round"><g transform="translate(741.1844146521736 191.06154057728713) rotate(0 0.05060976119153793 5.763005806537109)"><path d="M-0.1 -0.42 C0.05 1.55, 0.46 9.69, 0.55 11.61 M-0.82 0.55 C-0.66 2.64, 0.16 10.54, 0.35 12.35" stroke="#1e1e1e" stroke-width="2" fill="none"></path></g></g><mask></mask><g stroke-linecap="round"><g transform="translate(605.5981170330582 230.01948874934146) rotate(0 0.05060976119153793 5.763005806537109)"><path d="M0.45 0.08 C0.54 2, 0.45 9.22, 0.46 11.08 M0.02 -0.35 C0.08 1.66, 0.15 9.54, 0.21 11.55" stroke="#1e1e1e" stroke-width="2" fill="none"></path></g></g><mask></mask><g stroke-linecap="round"><g transform="translate(605.4198391273882 241.83165937819354) rotate(0 51.810224726981744 0.034342337951386526)"><path d="M0.77 -0.97 C18.03 -1.08, 87.37 -0.63, 104.51 -0.49 M-0.28 1.14 C16.81 1.16, 86.84 0.76, 104.03 0.76" stroke="#1e1e1e" stroke-width="2" fill="none"></path></g></g><mask></mask><g stroke-linecap="round"><g transform="translate(742.2130288765874 202.70446651584803) rotate(0 -15.390862176293979 19.54628506841189)"><path d="M0.89 -0.56 C-4.37 6.09, -25.52 32.22, -30.77 38.93 M-0.1 1.76 C-5.58 8.69, -26.52 34.4, -31.72 40.38" stroke="#1e1e1e" stroke-width="2" fill="none"></path></g></g><mask></mask><g stroke-linecap="round" transform="translate(150.673828125 336.3525666682482) rotate(0 32.998046875 9.443359375)"><path d="M4.72 0 C23.93 0.85, 45.57 1.46, 61.27 0 M4.72 0 C18.4 0.67, 30.41 0.98, 61.27 0 M61.27 0 C63.34 -1.99, 66.37 1.74, 66 4.72 M61.27 0 C66.71 -0.7, 67.39 0.17, 66 4.72 M66 4.72 C66.52 8.61, 66.75 11.36, 66 14.17 M66 4.72 C66.24 7.95, 65.59 10.55, 66 14.17 M66 14.17 C67.56 17.35, 64.42 18.56, 61.27 18.89 M66 14.17 C64.71 15.94, 65.41 16.94, 61.27 18.89 M61.27 18.89 C46.72 16.92, 32.78 18.37, 4.72 18.89 M61.27 18.89 C45.5 20.14, 28.91 19.41, 4.72 18.89 M4.72 18.89 C2.16 17.03, -0.97 15.73, 0 14.17 M4.72 18.89 C0.84 17.89, 0.71 15.86, 0 14.17 M0 14.17 C-0.37 11.45, 0.43 9.26, 0 4.72 M0 14.17 C0.32 10.89, -0.27 6.62, 0 4.72 M0 4.72 C-1.48 -0.38, 3.56 1.38, 4.72 0 M0 4.72 C-1.18 2.2, -0.6 1.57, 4.72 0" stroke="#1e1e1e" stroke-width="2" fill="none"></path></g><g stroke-linecap="round" transform="translate(150.14453125 356.1943635432482) rotate(0 32.998046875 9.443359375)"><path d="M4.72 0 C17.89 0.98, 30.66 -0.75, 61.27 0 M4.72 0 C18.93 0.52, 34.26 -1.27, 61.27 0 M61.27 0 C64.8 0.16, 67.99 0.96, 66 4.72 M61.27 0 C65.82 -1.4, 66.38 3.26, 66 4.72 M66 4.72 C66.73 7.83, 66.1 8.81, 66 14.17 M66 4.72 C65.74 7.33, 66.43 9.84, 66 14.17 M66 14.17 C66 16.98, 63.31 17.69, 61.27 18.89 M66 14.17 C66.99 15.36, 63.27 17.17, 61.27 18.89 M61.27 18.89 C45.62 18.01, 30.2 19.78, 4.72 18.89 M61.27 18.89 C41.66 19.68, 22.07 18.51, 4.72 18.89 M4.72 18.89 C0.61 17.3, -0.63 16.45, 0 14.17 M4.72 18.89 C2.28 17.43, -0.23 17.98, 0 14.17 M0 14.17 C0.49 11.62, 0.83 7.89, 0 4.72 M0 14.17 C-0.34 11.21, -0.41 8.39, 0 4.72 M0 4.72 C1.98 2.96, 0.55 0.54, 4.72 0 M0 4.72 C-2.17 3.14, 1.05 -2.26, 4.72 0" stroke="#1e1e1e" stroke-width="2" fill="none"></path></g><g stroke-linecap="round" transform="translate(150.3984375 375.4131135432482) rotate(0 32.998046875 9.443359375)"><path d="M4.72 0 C21.84 -0.92, 40.9 0.52, 61.27 0 M4.72 0 C23.82 -1.44, 44.2 -0.36, 61.27 0 M61.27 0 C66.41 -0.61, 67.21 0.35, 66 4.72 M61.27 0 C64.81 1.69, 65.09 2.69, 66 4.72 M66 4.72 C66.12 7.62, 65.79 12.83, 66 14.17 M66 4.72 C66.3 8.25, 65.93 11.68, 66 14.17 M66 14.17 C64.88 16.12, 65.28 17.19, 61.27 18.89 M66 14.17 C64.84 15.6, 63.79 18.39, 61.27 18.89 M61.27 18.89 C49.19 20.19, 38.59 19.74, 4.72 18.89 M61.27 18.89 C39.09 18.1, 15.84 18.23, 4.72 18.89 M4.72 18.89 C0.94 18.02, 0.62 16.05, 0 14.17 M4.72 18.89 C1.34 19.55, 0.69 16.47, 0 14.17 M0 14.17 C0.75 11.26, -0.22 9.09, 0 4.72 M0 14.17 C-0.29 10.17, 0.52 7.42, 0 4.72 M0 4.72 C-1.03 2.12, -0.32 1.36, 4.72 0 M0 4.72 C-0.52 -0.69, 3.48 1.63, 4.72 0" stroke="#1e1e1e" stroke-width="2" fill="none"></path></g><g stroke-linecap="round" transform="translate(146.494140625 330.6689729182482) rotate(0 36.91015625 34.34375)"><path d="M0 0 C25.61 1.06, 53.53 -1.44, 73.82 0 M0 0 C28.14 0.82, 56.91 0.43, 73.82 0 M73.82 0 C74.87 23.98, 74.37 51.43, 73.82 68.69 M73.82 0 C73.42 25.32, 74.99 51.95, 73.82 68.69 M73.82 68.69 C56.7 69.26, 39.18 68.15, 0 68.69 M73.82 68.69 C55.58 67.32, 38.06 67.85, 0 68.69 M0 68.69 C-0.17 55.72, 1.07 40.89, 0 0 M0 68.69 C0.2 40.46, -0.58 13.3, 0 0" stroke="#1e1e1e" stroke-width="2" fill="none"></path></g><g stroke-linecap="round"><g transform="translate(221.552734375 329.9814729182482) rotate(0 3.625 -4.91015625)"><path d="M0 0 C2.16 -3, 4.25 -5.53, 7.25 -9.82 M0 0 C1.65 -2.03, 3.02 -4.06, 7.25 -9.82" stroke="#1e1e1e" stroke-width="2" fill="none"></path></g></g><mask></mask><g stroke-linecap="round"><g transform="translate(222.529296875 397.9072541682482) rotate(0 3.625 -4.91015625)"><path d="M0 0 C2.78 -3.56, 4.53 -6.61, 7.25 -9.82 M0 0 C2.32 -3.14, 4.47 -5.89, 7.25 -9.82" stroke="#1e1e1e" stroke-width="2" fill="none"></path></g></g><mask></mask><g stroke-linecap="round"><g transform="translate(148.740234375 329.9385041682482) rotate(0 3.625 -4.91015625)"><path d="M0 0 C1.14 -2.04, 3.15 -3.84, 7.25 -9.82 M0 0 C1.97 -2.48, 3.81 -5.18, 7.25 -9.82" stroke="#1e1e1e" stroke-width="2" fill="none"></path></g></g><mask></mask><g stroke-linecap="round"><g transform="translate(155.380859375 320.9189729182482) rotate(0 36.23828125 -0.369140625)"><path d="M0 0 C17.98 1.67, 35.02 0.71, 72.48 -0.74 M0 0 C16.92 -0.22, 35.58 -0.16, 72.48 -0.74" stroke="#1e1e1e" stroke-width="2" fill="none"></path></g></g><mask></mask><g stroke-linecap="round"><g transform="translate(228.162109375 321.7939729182482) rotate(0 0.181640625 34.447265625)"><path d="M0 0 C-0.44 23.16, -0.93 44.24, 0.36 68.89 M0 0 C0.81 26.46, 0.69 51.52, 0.36 68.89" stroke="#1e1e1e" stroke-width="2" fill="none"></path></g></g><mask></mask><g stroke-linecap="round" transform="translate(527.419921875 335.2705354182482) rotate(0 32.998046875 9.443359375)"><path d="M4.72 0 C22.72 0.43, 37.52 0.2, 61.27 0 M4.72 0 C18.07 0.72, 29.2 0.16, 61.27 0 M61.27 0 C64.98 -0.95, 66.1 2.58, 66 4.72 M61.27 0 C62.57 0.86, 65.38 -0.06, 66 4.72 M66 4.72 C65.7 7.95, 66.29 11.98, 66 14.17 M66 4.72 C66.25 7.83, 65.47 10.21, 66 14.17 M66 14.17 C64.28 16.67, 64.22 17.55, 61.27 18.89 M66 14.17 C67.01 15.58, 62.75 20.89, 61.27 18.89 M61.27 18.89 C43.46 17.75, 23.89 19.38, 4.72 18.89 M61.27 18.89 C49.62 19.48, 38.53 17.6, 4.72 18.89 M4.72 18.89 C1.01 16.99, 1.8 17.76, 0 14.17 M4.72 18.89 C1.74 16.96, -2.04 17.79, 0 14.17 M0 14.17 C-0.54 12.96, -0.02 9.59, 0 4.72 M0 14.17 C0.24 10.78, -0.2 6.37, 0 4.72 M0 4.72 C-0.92 0.46, -0.31 -1.71, 4.72 0 M0 4.72 C-1.1 3.4, 1.8 0.45, 4.72 0" stroke="#1e1e1e" stroke-width="2" fill="none"></path></g><g stroke-linecap="round" transform="translate(526.890625 355.1123322932482) rotate(0 32.998046875 9.443359375)"><path d="M4.72 0 C18.79 -0.04, 33.82 -0.43, 61.27 0 M4.72 0 C23.79 -0.14, 44.12 -1.03, 61.27 0 M61.27 0 C64.53 1.01, 64.39 2.32, 66 4.72 M61.27 0 C63.8 -1.63, 67.11 1.36, 66 4.72 M66 4.72 C66.27 7.52, 65.93 8.25, 66 14.17 M66 4.72 C65.61 8.06, 65.66 11.48, 66 14.17 M66 14.17 C65.79 15.98, 65.31 17.38, 61.27 18.89 M66 14.17 C64.32 19.32, 65.36 21.01, 61.27 18.89 M61.27 18.89 C42.3 18.65, 19.15 19.86, 4.72 18.89 M61.27 18.89 C48.2 18.43, 33.38 18.45, 4.72 18.89 M4.72 18.89 C3.38 19.33, 0.14 15.64, 0 14.17 M4.72 18.89 C-0.47 19.36, -1.96 18.99, 0 14.17 M0 14.17 C0.1 10.15, 0.96 7.26, 0 4.72 M0 14.17 C-0.24 11.72, -0.27 9.59, 0 4.72 M0 4.72 C-1.88 -0.14, 0.62 1.58, 4.72 0 M0 4.72 C0.23 2.02, 1.4 2.27, 4.72 0" stroke="#1e1e1e" stroke-width="2" fill="none"></path></g><g stroke-linecap="round" transform="translate(527.14453125 374.3310822932482) rotate(0 32.998046875 9.443359375)"><path d="M4.72 0 C20.86 -0.37, 41.09 1.72, 61.27 0 M4.72 0 C27.53 -0.71, 49.83 0.27, 61.27 0 M61.27 0 C62.82 0.75, 65.46 0.16, 66 4.72 M61.27 0 C65.54 -0.22, 64.26 0.88, 66 4.72 M66 4.72 C65.99 6.77, 66.65 10.91, 66 14.17 M66 4.72 C65.5 8.02, 65.86 11.31, 66 14.17 M66 14.17 C66.88 15.81, 62.96 20.63, 61.27 18.89 M66 14.17 C66.94 19.44, 65.71 20.57, 61.27 18.89 M61.27 18.89 C46.57 20.32, 34.44 19.11, 4.72 18.89 M61.27 18.89 C38.9 17.39, 17.98 18.56, 4.72 18.89 M4.72 18.89 C1.72 17.22, -1.78 17.72, 0 14.17 M4.72 18.89 C-0.38 20.56, 1.63 16.18, 0 14.17 M0 14.17 C0.91 10.6, -0.68 7.34, 0 4.72 M0 14.17 C-0.18 10.33, -0.41 6.62, 0 4.72 M0 4.72 C-0.95 3.16, 1.77 0.39, 4.72 0 M0 4.72 C-0.18 3.85, -0.15 -0.03, 4.72 0" stroke="#1e1e1e" stroke-width="2" fill="none"></path></g><g stroke-linecap="round" transform="translate(523.240234375 329.5869416682482) rotate(0 36.91015625 34.34375)"><path d="M0 0 C23.2 1.87, 46.54 -0.85, 73.82 0 M0 0 C25.3 0.85, 49.7 0.72, 73.82 0 M73.82 0 C73.14 17.26, 72.73 37.38, 73.82 68.69 M73.82 0 C73.55 23.49, 75.01 46.32, 73.82 68.69 M73.82 68.69 C58.08 67.85, 42.29 68.94, 0 68.69 M73.82 68.69 C57.64 70.25, 41.19 70.06, 0 68.69 M0 68.69 C-2.25 54.45, -1.52 37.62, 0 0 M0 68.69 C-0.78 40.9, 0.4 15.24, 0 0" stroke="#1e1e1e" stroke-width="2" fill="none"></path></g><g stroke-linecap="round"><g transform="translate(598.298828125 328.8994416682482) rotate(0 3.625 -4.91015625)"><path d="M0 0 C2.43 -2.99, 4.25 -5.45, 7.25 -9.82 M0 0 C1.66 -2.41, 3.6 -5.11, 7.25 -9.82" stroke="#1e1e1e" stroke-width="2" fill="none"></path></g></g><mask></mask><g stroke-linecap="round"><g transform="translate(599.275390625 396.8252229182482) rotate(0 3.625 -4.91015625)"><path d="M0 0 C2.94 -3.67, 5.38 -7.56, 7.25 -9.82 M0 0 C2.51 -3.59, 5.2 -6.91, 7.25 -9.82" stroke="#1e1e1e" stroke-width="2" fill="none"></path></g></g><mask></mask><g stroke-linecap="round"><g transform="translate(525.486328125 328.8564729182482) rotate(0 3.625 -4.91015625)"><path d="M0 0 C1.61 -2.45, 3.83 -5.26, 7.25 -9.82 M0 0 C2.55 -3.31, 4.75 -6.67, 7.25 -9.82" stroke="#1e1e1e" stroke-width="2" fill="none"></path></g></g><mask></mask><g stroke-linecap="round"><g transform="translate(532.126953125 319.8369416682482) rotate(0 36.23828125 -0.369140625)"><path d="M0 0 C24.77 -1.89, 48.28 -1.06, 72.48 -0.74 M0 0 C15.85 -0.4, 33.13 0.05, 72.48 -0.74" stroke="#1e1e1e" stroke-width="2" fill="none"></path></g></g><mask></mask><g stroke-linecap="round"><g transform="translate(604.908203125 320.7119416682482) rotate(0 0.181640625 34.447265625)"><path d="M0 0 C1.2 20.49, -0.85 43.03, 0.36 68.89 M0 0 C-0.48 20.34, 0.41 40, 0.36 68.89" stroke="#1e1e1e" stroke-width="2" fill="none"></path></g></g><mask></mask><g stroke-linecap="round"><g transform="translate(118.09375 189.26171875) rotate(0 43.904296875 -44.89453125)"><path d="M-0.09 -1.15 C14.53 -16.38, 72.06 -76.03, 86.7 -90.91 M-1.59 0.87 C13.46 -14.31, 74.07 -74.9, 88.83 -89.96" stroke="#1e1e1e" stroke-width="2" fill="none"></path></g></g><mask></mask><g stroke-linecap="round"><g transform="translate(147.78125 190.2578125) rotate(0 162.638671875 -49.27734375)"><path d="M-0.38 -0.4 C53.84 -16.78, 270.67 -82.77, 325.04 -99.13 M1.62 -1.66 C55.68 -17.81, 270.01 -81.96, 323.97 -97.89" stroke="#1e1e1e" stroke-width="2" fill="none"></path></g></g><mask></mask><g stroke-linecap="round"><g transform="translate(287.515625 190.94921875) rotate(0 -29.5546875 -45.87109375)"><path d="M-1.06 -0.1 C-10.92 -15.29, -49.15 -76.17, -58.67 -91.57 M0.59 -1.2 C-9.44 -16.13, -49.55 -74.88, -59.39 -89.94" stroke="#1e1e1e" stroke-width="2" fill="none"></path></g></g><mask></mask><g stroke-linecap="round"><g transform="translate(320.296875 192.58984375) rotate(0 88.009765625 -47.361328125)"><path d="M-0.28 -0.43 C29.08 -16.23, 146.28 -78.79, 175.53 -94.68 M1.77 -1.7 C30.98 -17.3, 145.01 -77.57, 174.32 -93.12" stroke="#1e1e1e" stroke-width="2" fill="none"></path></g></g><mask></mask><g stroke-linecap="round"><g transform="translate(490.109375 184.46484375) rotate(0 -111.63671875 -41.48046875)"><path d="M0.31 -0.7 C-36.75 -14.72, -185.2 -70.05, -222.58 -83.91 M-0.99 1.55 C-38.12 -12.37, -185.82 -68.77, -223.16 -82.87" stroke="#1e1e1e" stroke-width="2" fill="none"></path></g></g><mask></mask><g stroke-linecap="round"><g transform="translate(513.796875 183.65234375) rotate(0 5.51953125 -41.962890625)"><path d="M0.96 0.94 C2.88 -12.81, 9.86 -68.93, 11.66 -83.05 M0.01 0.4 C1.81 -13.65, 9.15 -70.92, 11.03 -84.71" stroke="#1e1e1e" stroke-width="2" fill="none"></path></g></g><mask></mask><g stroke-linecap="round"><g transform="translate(662.796875 185.71484375) rotate(0 -182.78125 -51.37109375)"><path d="M0.14 0.48 C-60.68 -16.62, -305.34 -85.57, -366.09 -102.77 M-1.25 -0.31 C-62.17 -17.19, -306.77 -84.4, -367.32 -101.25" stroke="#1e1e1e" stroke-width="2" fill="none"></path></g></g><mask></mask><g stroke-linecap="round"><g transform="translate(685.265625 187.21484375) rotate(0 -60.677734375 -44.830078125)"><path d="M1.14 0.59 C-19.31 -14.34, -102.26 -74.29, -122.55 -89.25 M0.28 -0.14 C-19.84 -15.48, -100.26 -75.97, -120.46 -91.15" stroke="#1e1e1e" stroke-width="2" fill="none"></path></g></g><mask></mask><g stroke-linecap="round"><g transform="translate(179.21875 318.55859375) rotate(0 -35.58984375 -36.1640625)"><path d="M-0.52 -0.47 C-12.17 -12.69, -58.91 -61.09, -70.76 -73.04 M1.41 -1.76 C-10.29 -13.86, -59.15 -60.38, -71.49 -71.88" stroke="#1e1e1e" stroke-width="2" fill="none"></path></g></g><mask></mask><g stroke-linecap="round"><g transform="translate(201.953125 319.07421875) rotate(0 38.220703125 -34.892578125)"><path d="M0.63 -1.06 C13.48 -12.55, 64.27 -58.81, 76.84 -70.12 M-0.49 1 C12.25 -10.21, 63.51 -56.79, 76.1 -68.76" stroke="#1e1e1e" stroke-width="2" fill="none"></path></g></g><mask></mask><g stroke-linecap="round"><g transform="translate(555.53125 316.62109375) rotate(0 -35.947265625 -36.89453125)"><path d="M0.62 -0.55 C-11.63 -13.14, -61.07 -62.6, -72.96 -74.81 M-0.51 1.77 C-12.45 -10.76, -59.08 -61.43, -70.81 -73.8" stroke="#1e1e1e" stroke-width="2" fill="none"></path></g></g><mask></mask><g stroke-linecap="round"><g transform="translate(582.765625 315.76171875) rotate(0 37.287109375 -35.66015625)"><path d="M-0.18 0.53 C12.35 -11.24, 61.45 -59.79, 74.11 -71.57 M-1.74 -0.24 C10.69 -11.74, 60.02 -58.22, 72.91 -70.16" stroke="#1e1e1e" stroke-width="2" fill="none"></path></g></g><mask></mask><g transform="translate(244.5703125 10.15234375) rotate(0 15.669990539550781 12.5)"><text x="0" y="0" font-family="Virgil, Segoe UI Emoji" font-size="20px" fill="#1e1e1e" text-anchor="start" style="white-space: pre;" direction="ltr" dominant-baseline="text-before-edge">S01</text></g><g transform="translate(536.46484375 10) rotate(0 20.079986572265625 12.5)"><text x="0" y="0" font-family="Virgil, Segoe UI Emoji" font-size="20px" fill="#1e1e1e" text-anchor="start" style="white-space: pre;" direction="ltr" dominant-baseline="text-before-edge">S02</text></g><a href="http://localhost:2233/ssh/host/10.0.2.2?header=l01&amp;headerBackground=blue&amp;username=arista&amp;userpassword=arista"><g transform="translate(10 208.15234375) rotate(0 17.578125 12)"><text x="0" y="0" font-family="Cascadia, Segoe UI Emoji" font-size="20px" fill="#1971c2" text-anchor="start" style="white-space: pre;" direction="ltr" dominant-baseline="text-before-edge">L01</text></g></a><g transform="translate(350.671875 221.16796875) rotate(0 19.989990234375 12.5)"><text x="0" y="0" font-family="Virgil, Segoe UI Emoji" font-size="20px" fill="#1e1e1e" text-anchor="start" style="white-space: pre;" direction="ltr" dominant-baseline="text-before-edge">L02</text></g><g transform="translate(393.23828125 248.48046875) rotate(0 19.67999267578125 12.5)"><text x="0" y="0" font-family="Virgil, Segoe UI Emoji" font-size="20px" fill="#1e1e1e" text-anchor="start" style="white-space: pre;" direction="ltr" dominant-baseline="text-before-edge">L03</text></g><g transform="translate(746.15234375 212.29296875) rotate(0 19.269989013671875 12.5)"><text x="0" y="0" font-family="Virgil, Segoe UI Emoji" font-size="20px" fill="#1e1e1e" text-anchor="start" style="white-space: pre;" direction="ltr" dominant-baseline="text-before-edge">L04</text></g><g transform="translate(245.04296875 357.33984375) rotate(0 14.529991149902344 12.5)"><text x="0" y="0" font-family="Virgil, Segoe UI Emoji" font-size="20px" fill="#1e1e1e" text-anchor="start" style="white-space: pre;" direction="ltr" dominant-baseline="text-before-edge">h01</text></g><g transform="translate(621.42578125 352.36328125) rotate(0 18.939987182617188 12.5)"><text x="0" y="0" font-family="Virgil, Segoe UI Emoji" font-size="20px" fill="#1e1e1e" text-anchor="start" style="white-space: pre;" direction="ltr" dominant-baseline="text-before-edge">h02</text></g><g transform="translate(95.921875 157.76171875) rotate(0 8.17999267578125 12.5)"><text x="0" y="0" font-family="Virgil, Segoe UI Emoji" font-size="20px" fill="#1e1e1e" text-anchor="start" style="white-space: pre;" direction="ltr" dominant-baseline="text-before-edge">e1</text></g><g transform="translate(150.86297607421875 99.859375) rotate(0 8.17999267578125 12.5)"><text x="0" y="0" font-family="Virgil, Segoe UI Emoji" font-size="20px" fill="#1e1e1e" text-anchor="start" style="white-space: pre;" direction="ltr" dominant-baseline="text-before-edge">e1</text></g><g transform="translate(287.35125732421875 158.03125) rotate(0 8.17999267578125 12.5)"><text x="0" y="0" font-family="Virgil, Segoe UI Emoji" font-size="20px" fill="#1e1e1e" text-anchor="start" style="white-space: pre;" direction="ltr" dominant-baseline="text-before-edge">e1</text></g><g transform="translate(426.85516357421875 168.09765625) rotate(0 8.17999267578125 12.5)"><text x="0" y="0" font-family="Virgil, Segoe UI Emoji" font-size="20px" fill="#1e1e1e" text-anchor="start" style="white-space: pre;" direction="ltr" dominant-baseline="text-before-edge">e1</text></g><g transform="translate(615.4176635742188 151.8359375) rotate(0 8.17999267578125 12.5)"><text x="0" y="0" font-family="Virgil, Segoe UI Emoji" font-size="20px" fill="#1e1e1e" text-anchor="start" style="white-space: pre;" direction="ltr" dominant-baseline="text-before-edge">e1</text></g><g transform="translate(448.42938232421875 63.80859375) rotate(0 8.17999267578125 12.5)"><text x="0" y="0" font-family="Virgil, Segoe UI Emoji" font-size="20px" fill="#1e1e1e" text-anchor="start" style="white-space: pre;" direction="ltr" dominant-baseline="text-before-edge">e1</text></g><g transform="translate(133.44891357421875 293.8046875) rotate(0 8.17999267578125 12.5)"><text x="0" y="0" font-family="Virgil, Segoe UI Emoji" font-size="20px" fill="#1e1e1e" text-anchor="start" style="white-space: pre;" direction="ltr" dominant-baseline="text-before-edge">e1</text></g><g transform="translate(507.20672607421875 291.9296875) rotate(0 8.17999267578125 12.5)"><text x="0" y="0" font-family="Virgil, Segoe UI Emoji" font-size="20px" fill="#1e1e1e" text-anchor="start" style="white-space: pre;" direction="ltr" dominant-baseline="text-before-edge">e1</text></g><g transform="translate(166.51171875 151.94921875) rotate(0 12.589988708496094 12.5)"><text x="0" y="0" font-family="Virgil, Segoe UI Emoji" font-size="20px" fill="#1e1e1e" text-anchor="start" style="white-space: pre;" direction="ltr" dominant-baseline="text-before-edge">e2</text></g><g transform="translate(205.7537612915039 106.16015625) rotate(0 12.589988708496094 12.5)"><text x="0" y="0" font-family="Virgil, Segoe UI Emoji" font-size="20px" fill="#1e1e1e" text-anchor="start" style="white-space: pre;" direction="ltr" dominant-baseline="text-before-edge">e2</text></g><g transform="translate(482.9686050415039 101.5703125) rotate(0 12.589988708496094 12.5)"><text x="0" y="0" font-family="Virgil, Segoe UI Emoji" font-size="20px" fill="#1e1e1e" text-anchor="start" style="white-space: pre;" direction="ltr" dominant-baseline="text-before-edge">e2</text></g><g transform="translate(354.3123550415039 169.015625) rotate(0 12.589988708496094 12.5)"><text x="0" y="0" font-family="Virgil, Segoe UI Emoji" font-size="20px" fill="#1e1e1e" text-anchor="start" style="white-space: pre;" direction="ltr" dominant-baseline="text-before-edge">e2</text></g><g transform="translate(520.4100112915039 156) rotate(0 12.589988708496094 12.5)"><text x="0" y="0" font-family="Virgil, Segoe UI Emoji" font-size="20px" fill="#1e1e1e" text-anchor="start" style="white-space: pre;" direction="ltr" dominant-baseline="text-before-edge">e2</text></g><g transform="translate(681.5076675415039 155.984375) rotate(0 12.589988708496094 12.5)"><text x="0" y="0" font-family="Virgil, Segoe UI Emoji" font-size="20px" fill="#1e1e1e" text-anchor="start" style="white-space: pre;" direction="ltr" dominant-baseline="text-before-edge">e2</text></g><g transform="translate(230.1600112915039 293.7421875) rotate(0 12.589988708496094 12.5)"><text x="0" y="0" font-family="Virgil, Segoe UI Emoji" font-size="20px" fill="#1e1e1e" text-anchor="start" style="white-space: pre;" direction="ltr" dominant-baseline="text-before-edge">e2</text></g><g transform="translate(611.2693862915039 293.109375) rotate(0 12.589988708496094 12.5)"><text x="0" y="0" font-family="Virgil, Segoe UI Emoji" font-size="20px" fill="#1e1e1e" text-anchor="start" style="white-space: pre;" direction="ltr" dominant-baseline="text-before-edge">e2</text></g><g transform="translate(262.39453125 104.37890625) rotate(0 12.279991149902344 12.5)"><text x="0" y="0" font-family="Virgil, Segoe UI Emoji" font-size="20px" fill="#1e1e1e" text-anchor="start" style="white-space: pre;" direction="ltr" dominant-baseline="text-before-edge">e3</text></g><g transform="translate(530.6184463500977 99.625) rotate(0 12.279991149902344 12.5)"><text x="0" y="0" font-family="Virgil, Segoe UI Emoji" font-size="20px" fill="#1e1e1e" text-anchor="start" style="white-space: pre;" direction="ltr" dominant-baseline="text-before-edge">e3</text></g><g transform="translate(315.46875 60.0703125) rotate(0 11.869987487792969 12.5)"><text x="0" y="0" font-family="Virgil, Segoe UI Emoji" font-size="20px" fill="#1e1e1e" text-anchor="start" style="white-space: pre;" direction="ltr" dominant-baseline="text-before-edge">e4</text></g><g transform="translate(592.3046875 83.625) rotate(0 11.869987487792969 12.5)"><text x="0" y="0" font-family="Virgil, Segoe UI Emoji" font-size="20px" fill="#1e1e1e" text-anchor="start" style="white-space: pre;" direction="ltr" dominant-baseline="text-before-edge">e4</text></g><g stroke-linecap="round"><g transform="translate(184.59616088867188 211.1313614591241) rotate(0 27.42578125 0.17578125)"><path d="M0.96 -0.6 C10.25 -0.63, 45.86 0.86, 54.89 0.97 M0.01 1.7 C9.22 1.82, 44.88 -0.75, 53.96 -0.82" stroke="#1e1e1e" stroke-width="2" fill="none"></path></g></g><mask></mask><g stroke-linecap="round"><g transform="translate(167.97116088867188 235.4126114591241) rotate(0 27.02734375 0.0390625)"><path d="M0.99 -0.05 C10.12 -0.09, 46.51 -0.58, 55.22 -0.52 M0.04 -1.12 C9.08 -0.98, 45.61 0.22, 54.88 0.7" stroke="#1e1e1e" stroke-width="2" fill="none"></path></g></g><mask></mask><g stroke-linecap="round"><g transform="translate(559.2367858886719 207.6782364591241) rotate(0 29.896484375 -0.7421875)"><path d="M0.12 -0.74 C10.28 -0.74, 50.78 -0.46, 60.6 -0.46 M-1.27 1.49 C8.83 1.22, 49.61 -1.35, 60.07 -2.05" stroke="#1e1e1e" stroke-width="2" fill="none"></path></g></g><mask></mask><g stroke-linecap="round"><g transform="translate(541.8149108886719 230.5532364591241) rotate(0 31.974609375 -0.30078125)"><path d="M1.16 -1.08 C11.91 -1.26, 54.13 -0.91, 64.65 -0.89 M0.3 0.96 C10.95 0.95, 53.51 0.63, 64.08 0.49" stroke="#1e1e1e" stroke-width="2" fill="none"></path></g></g><mask></mask><g transform="translate(194.4280242919922 193.46918973555046) rotate(0 4.9181365966796875 5.009827973573579)"><text x="0" y="0" font-family="Virgil, Segoe UI Emoji" font-size="8.015724757717736px" fill="#1e1e1e" text-anchor="start" style="white-space: pre;" direction="ltr" dominant-baseline="text-before-edge">e3</text></g><g transform="translate(221.8655242919922 192.82075223555046) rotate(0 4.9181365966796875 5.009827973573579)"><text x="0" y="0" font-family="Virgil, Segoe UI Emoji" font-size="8.015724757717736px" fill="#1e1e1e" text-anchor="start" style="white-space: pre;" direction="ltr" dominant-baseline="text-before-edge">e3</text></g><g transform="translate(573.4631805419922 188.27778348555046) rotate(0 4.9181365966796875 5.009827973573579)"><text x="0" y="0" font-family="Virgil, Segoe UI Emoji" font-size="8.015724757717736px" fill="#1e1e1e" text-anchor="start" style="white-space: pre;" direction="ltr" dominant-baseline="text-before-edge">e3</text></g><g transform="translate(603.8850555419922 189.44965848555046) rotate(0 4.9181365966796875 5.009827973573579)"><text x="0" y="0" font-family="Virgil, Segoe UI Emoji" font-size="8.015724757717736px" fill="#1e1e1e" text-anchor="start" style="white-space: pre;" direction="ltr" dominant-baseline="text-before-edge">e3</text></g><g transform="translate(169.77973175048828 240.23090848555051) rotate(0 4.753929138183594 5.009827973573579)"><text x="0" y="0" font-family="Virgil, Segoe UI Emoji" font-size="8.015724757717736px" fill="#1e1e1e" text-anchor="start" style="white-space: pre;" direction="ltr" dominant-baseline="text-before-edge">e4</text></g><g transform="translate(204.43988800048828 240.03950223555057) rotate(0 4.753929138183594 5.009827973573579)"><text x="0" y="0" font-family="Virgil, Segoe UI Emoji" font-size="8.015724757717736px" fill="#1e1e1e" text-anchor="start" style="white-space: pre;" direction="ltr" dominant-baseline="text-before-edge">e4</text></g><g transform="translate(545.3734817504883 237.76606473555057) rotate(0 4.753929138183594 5.009827973573579)"><text x="0" y="0" font-family="Virgil, Segoe UI Emoji" font-size="8.015724757717736px" fill="#1e1e1e" text-anchor="start" style="white-space: pre;" direction="ltr" dominant-baseline="text-before-edge">e4</text></g><g transform="translate(589.5062942504882 235.78950223555057) rotate(0 4.753929138183594 5.009827973573579)"><text x="0" y="0" font-family="Virgil, Segoe UI Emoji" font-size="8.015724757717736px" fill="#1e1e1e" text-anchor="start" style="white-space: pre;" direction="ltr" dominant-baseline="text-before-edge">e4</text></g><g transform="translate(84.22116088867188 251.7446427091241) rotate(0 15.059989929199219 12.5)"><text x="0" y="0" font-family="Virgil, Segoe UI Emoji" font-size="20px" fill="#1e1e1e" text-anchor="start" style="white-space: pre;" direction="ltr" dominant-baseline="text-before-edge">e10</text></g><g transform="translate(274.00476837158203 248.6547989591241) rotate(0 15.059989929199219 12.5)"><text x="0" y="0" font-family="Virgil, Segoe UI Emoji" font-size="20px" fill="#1e1e1e" text-anchor="start" style="white-space: pre;" direction="ltr" dominant-baseline="text-before-edge">e10</text></g><g transform="translate(460.60633087158203 255.8305802091241) rotate(0 19.469985961914062 12.5)"><text x="0" y="0" font-family="Virgil, Segoe UI Emoji" font-size="20px" fill="#1e1e1e" text-anchor="start" style="white-space: pre;" direction="ltr" dominant-baseline="text-before-edge">e20</text></g><g transform="translate(656.086799621582 245.3618302091241) rotate(0 19.469985961914062 12.5)"><text x="0" y="0" font-family="Virgil, Segoe UI Emoji" font-size="20px" fill="#1e1e1e" text-anchor="start" style="white-space: pre;" direction="ltr" dominant-baseline="text-before-edge">e20</text></g></svg>